<?xml version="1.0" standalone="no"?><!DOCTYPE svg PUBLIC "-//W3C//DTD SVG 1.1//EN" "http://www.w3.org/Graphics/SVG/1.1/DTD/svg11.dtd"><svg t="1546348833957" class="icon" style="" viewBox="0 0 1024 1024" version="1.1" xmlns="http://www.w3.org/2000/svg" p-id="4397" xmlns:xlink="http://www.w3.org/1999/xlink" width="32" height="32"><defs><style type="text/css"></style></defs><path d="M512 1011.2c-256 0-460.8-204.8-460.8-460.8s204.8-460.8 460.8-460.8 460.8 204.8 460.8 460.8-204.8 460.8-460.8 460.8z m0-864c-224 0-403.2 179.2-403.2 403.2s179.2 403.2 403.2 403.2 403.2-179.2 403.2-403.2c-6.4-224-185.6-403.2-403.2-403.2z" fill="#d81e06" p-id="4398"></path><path d="M345.6 857.6h-6.4c-108.8-64-179.2-179.2-179.2-307.2 0-6.4 6.4-12.8 12.8-12.8s12.8 6.4 12.8 12.8c0 115.2 64 217.6 160 275.2 6.4 6.4 12.8 12.8 6.4 19.2 6.4 6.4 0 12.8-6.4 12.8zM480 896h-19.2c-6.4 0-12.8-6.4-12.8-19.2 0-6.4 6.4-12.8 19.2-12.8h19.2c6.4 0 12.8 6.4 12.8 19.2-6.4 12.8-12.8 12.8-19.2 12.8zM128 339.2c-6.4 0-12.8 0-19.2-6.4-51.2-32-83.2-89.6-83.2-153.6 0-96 83.2-179.2 179.2-179.2 70.4 0 134.4 44.8 166.4 108.8 6.4 12.8 0 32-19.2 38.4-12.8 6.4-32 0-38.4-19.2-19.2-44.8-57.6-70.4-108.8-70.4-64 0-115.2 51.2-115.2 115.2 0 38.4 19.2 76.8 51.2 96 12.8 6.4 19.2 25.6 6.4 44.8 0 25.6-6.4 25.6-19.2 25.6zM902.4 339.2c-12.8 0-19.2-6.4-25.6-12.8-6.4-12.8-6.4-32 6.4-44.8 32-19.2 51.2-57.6 51.2-96 0-64-51.2-115.2-115.2-115.2-44.8 0-89.6 25.6-108.8 70.4-6.4 12.8-25.6 25.6-38.4 19.2-12.8-6.4-25.6-25.6-19.2-38.4 25.6-64 89.6-108.8 166.4-108.8 96 0 179.2 83.2 179.2 179.2 0 64-32 115.2-83.2 153.6 0-6.4-6.4-6.4-12.8-6.4zM179.2 1024c-6.4 0-12.8 0-19.2-6.4-12.8-12.8-19.2-32-6.4-44.8l70.4-89.6c12.8-12.8 32-19.2 44.8-6.4 12.8 12.8 19.2 32 6.4 44.8l-70.4 89.6c-6.4 6.4-12.8 12.8-25.6 12.8zM825.6 1024c-6.4 0-19.2-6.4-25.6-12.8l-70.4-89.6c-12.8-12.8-6.4-32 6.4-44.8 12.8-12.8 32-6.4 44.8 6.4l70.4 89.6c12.8 12.8 6.4 32-6.4 44.8-6.4 6.4-12.8 6.4-19.2 6.4zM595.2 678.4c-6.4 0-19.2 0-19.2-6.4l-83.2-89.6c-6.4-6.4-6.4-12.8-6.4-19.2v-243.2c0-19.2 12.8-32 32-32s32 12.8 32 32v230.4l76.8 83.2c12.8 12.8 12.8 32 0 44.8h-32z" fill="#d81e06" p-id="4399"></path></svg>